<?xml version="1.0" encoding="UTF-8"?>
<!-- Generator: Adobe Illustrator 24.0.2, SVG Export Plug-In . SVG Version: 6.00 Build 0)  -->
<svg version="1.1" id="Layer_1" xmlns="http://www.w3.org/2000/svg" xmlns:xlink="http://www.w3.org/1999/xlink" x="0px" y="0px" viewBox="0 0 210 61.1" style="enable-background:new 0 0 210 61.1;" xml:space="preserve">
<style type="text/css">
	.st0{enable-background:new    ;}
	.st1{fill:#444445;}
	.st2{fill:#2196F3;}
	.st3{fill:#F8C187;}
	.st4{fill:#393939;}
	.st5{fill:#FFFFFF;}
	.st6{opacity:0.503;fill:#FFFFFF;enable-background:new    ;}
	.st7{fill:url(#Path_1474_1_);}
	.st8{fill:#B5B5B5;}
	.st9{opacity:0.299;enable-background:new    ;}
	.st10{fill:#CDCDCD;}
</style>
<g id="jobboy_-_new_logo" transform="translate(-23.5 -96.942)">
	<g class="st0">
		<path class="st1" d="M173.2,141.7c-1.2,0-2.4-0.1-3.6-0.3s-2.3-0.5-3.3-0.9c-1-0.4-1.8-1-2.3-1.7c-0.6-0.8-0.9-1.8-0.9-3v-23.8    h6.8v11.7l-1.2-2.2c0.5-0.6,1.1-1.1,1.9-1.5c0.8-0.4,1.6-0.6,2.4-0.8c0.8-0.1,1.5-0.2,2-0.2c3.1,0,5.5,0.9,7.1,2.8    c1.7,1.9,2.5,4.7,2.5,8.4c0,2.1-0.3,3.8-0.8,5.3c-0.5,1.5-1.3,2.6-2.3,3.5s-2.2,1.5-3.6,1.9C176.5,141.5,174.9,141.7,173.2,141.7z     M173.1,135.9c1.1,0,1.9-0.2,2.6-0.6c0.7-0.4,1.2-1,1.5-1.8c0.3-0.8,0.5-1.7,0.5-2.8c0-1.6-0.2-2.9-0.6-3.8    c-0.4-0.9-1-1.5-1.6-1.9c-0.7-0.4-1.5-0.6-2.3-0.6c-0.5,0-1,0.1-1.6,0.2s-1.1,0.3-1.6,0.6v8.7c0,0.4,0.1,0.8,0.4,1.1    c0.3,0.3,0.6,0.5,1.1,0.6C171.9,135.9,172.5,135.9,173.1,135.9z"/>
		<path class="st1" d="M196.8,141.7c-3.7,0-6.4-1-8.3-2.9c-1.8-1.9-2.8-4.7-2.8-8.5c0-4.1,0.9-7,2.8-8.8c1.8-1.7,4.6-2.6,8.2-2.6    c2.4,0,4.4,0.4,6.1,1.2c1.7,0.8,2.9,2,3.8,3.7c0.9,1.7,1.3,3.8,1.3,6.5c0,3.8-1,6.6-2.9,8.5C203.1,140.7,200.4,141.7,196.8,141.7z     M196.8,136.2c0.9,0,1.7-0.2,2.3-0.6c0.6-0.4,1.1-1.1,1.4-2s0.5-2,0.5-3.3c0-1.6-0.2-2.8-0.5-3.6s-0.8-1.4-1.4-1.8    c-0.6-0.3-1.4-0.5-2.3-0.5c-0.9,0-1.7,0.2-2.3,0.5c-0.6,0.4-1.1,1-1.4,1.8s-0.4,2.1-0.4,3.6c0,2,0.3,3.5,1,4.5    C194.4,135.7,195.4,136.2,196.8,136.2z"/>
		<path class="st1" d="M214.1,149.3c-0.8,0-1.5-0.1-2.2-0.2c-0.7-0.1-1.4-0.3-2-0.6v-5.6c0.5,0.2,1,0.3,1.4,0.4    c0.4,0.1,0.8,0.1,1.2,0.1c0.6,0,1.2-0.1,1.7-0.4s0.9-0.8,1.3-1.5s0.6-1.8,0.7-3.2l0.2,4l-9.2-22.6h7.9l4.4,14.3H219l4.3-14.3h7.5    l-8.2,21.3c-0.8,2-1.6,3.6-2.5,4.9c-0.9,1.2-1.8,2.1-2.9,2.6C216.2,149,215.2,149.3,214.1,149.3z"/>
	</g>
	<g class="st0">
		<path class="st2" d="M101.8,149.2v-5.5c0.6,0.1,1.2,0,1.7-0.1c0.5-0.2,0.8-0.4,1.1-0.9s0.4-1,0.4-1.6v-21.3h6.9l0.1,21.2    c0,2.2-0.5,3.8-1.4,5c-0.9,1.2-2.1,2-3.7,2.5C105.3,148.9,103.6,149.2,101.8,149.2z M104.8,116.7v-5.2h7.1v5.2H104.8z"/>
		<path class="st2" d="M125.3,141.7c-3.7,0-6.4-1-8.3-2.9c-1.8-1.9-2.8-4.7-2.8-8.5c0-4.1,0.9-7,2.8-8.8c1.8-1.7,4.6-2.6,8.2-2.6    c2.4,0,4.4,0.4,6.1,1.2c1.7,0.8,2.9,2,3.8,3.7c0.9,1.7,1.3,3.8,1.3,6.5c0,3.8-1,6.6-2.9,8.5S128.9,141.7,125.3,141.7z     M125.3,136.2c0.9,0,1.7-0.2,2.3-0.6c0.6-0.4,1.1-1.1,1.4-2s0.5-2,0.5-3.3c0-1.6-0.2-2.8-0.5-3.6s-0.8-1.4-1.4-1.8    c-0.6-0.3-1.4-0.5-2.3-0.5c-0.9,0-1.7,0.2-2.3,0.5c-0.6,0.4-1.1,1-1.4,1.8s-0.4,2.1-0.4,3.6c0,2,0.3,3.5,1,4.5    C122.9,135.7,123.9,136.2,125.3,136.2z"/>
		<path class="st2" d="M148.8,141.7c-1.2,0-2.4-0.1-3.6-0.3c-1.2-0.2-2.3-0.5-3.3-0.9c-1-0.4-1.8-1-2.3-1.7c-0.6-0.8-0.9-1.8-0.9-3    v-23.8h6.8v11.7l-1.2-2.2c0.5-0.6,1.1-1.1,1.9-1.5c0.8-0.4,1.6-0.6,2.4-0.8c0.8-0.1,1.5-0.2,2-0.2c3.1,0,5.5,0.9,7.1,2.8    c1.7,1.9,2.5,4.7,2.5,8.4c0,2.1-0.3,3.8-0.8,5.3c-0.5,1.5-1.3,2.6-2.3,3.5s-2.2,1.5-3.6,1.9C152.1,141.5,150.6,141.7,148.8,141.7z     M148.8,135.9c1.1,0,1.9-0.2,2.6-0.6c0.7-0.4,1.2-1,1.5-1.8c0.3-0.8,0.5-1.7,0.5-2.8c0-1.6-0.2-2.9-0.6-3.8    c-0.4-0.9-1-1.5-1.6-1.9c-0.7-0.4-1.5-0.6-2.3-0.6c-0.5,0-1,0.1-1.6,0.2s-1.1,0.3-1.6,0.6v8.7c0,0.4,0.1,0.8,0.4,1.1    s0.6,0.5,1.1,0.6C147.6,135.9,148.1,135.9,148.8,135.9z"/>
	</g>
	<g id="Group_119">
		<path id="Rectangle_176" class="st3" d="M35.5,105.1h35c2.2,0,4,1.8,4,4v19c0,2.2-1.8,4-4,4h-35c-2.2,0-4-1.8-4-4v-19    C31.5,106.8,33.3,105.1,35.5,105.1z"/>
		<path id="Union_11" class="st4" d="M54.7,119.4c-7.9-0.9-15.1-5.2-15.7-3.8s-2.3,3.8-4.6,3.8s-4-0.9-4.8-5    c-0.8-4.1-0.1-9.7,2.3-11.4c1.2-0.8,2.6-1.1,4-0.8c0.2,0,0.4,0,0.6,0c-0.2-0.5-0.5-1-0.9-1.4c-1.1-1.2,1.2-0.6,2.6,0.8    c0.9-0.8,2.1-2.1,7.3-3.2c0.4-0.1,0.7-0.2,1.4-0.3c0.4-0.1,0.8-0.2,1.4-0.3c5.6-1.2,11.4-1,17,0.6c7.5,2.1,10.7,3.4,11.4,7.6    c0.7,4.1,0,6.4-1,9.8s-3.3,3-5.1,3.8c-2,0.5-4.1,0.7-6.2,0.6C61.2,120,57.9,119.8,54.7,119.4z"/>
		<ellipse id="Ellipse_75" class="st5" cx="42.5" cy="127.1" rx="6" ry="5"/>
		<ellipse id="Ellipse_79" class="st5" cx="61.5" cy="127.1" rx="6" ry="5"/>
		<circle id="Ellipse_77" class="st4" cx="42.5" cy="128.1" r="2"/>
		<circle id="Ellipse_78" class="st4" cx="61.5" cy="128.1" r="2"/>
		<path id="Rectangle_370" class="st6" d="M35,127h36c2.2,0,4,1.8,4,4v22c0,2.2-1.8,4-4,4H35c-2.2,0-4-1.8-4-4v-22    C31,128.8,32.8,127,35,127z"/>
		
			<linearGradient id="Path_1474_1_" gradientUnits="userSpaceOnUse" x1="-117.12" y1="371.4248" x2="-117.12" y2="370.4248" gradientTransform="matrix(50 0 0 -29 5909 10900.3184)">
			<stop offset="0" style="stop-color:#D2D2D2"/>
			<stop offset="1" style="stop-color:#B5B5B5"/>
		</linearGradient>
		<path id="Path_1474" class="st7" d="M32,129h42c2.2,0,4,1.8,4,4l-1,21c0,2.2-1.8,4-4,4H33c-2.2,0-4-1.8-4-4l-1-21    C28,130.8,29.8,129,32,129z"/>
		<circle id="Ellipse_218" class="st4" cx="34" cy="135" r="2"/>
		<circle id="Ellipse_219" class="st8" cx="53" cy="144" r="4"/>
		<path id="Rectangle_180" class="st9" d="M27.5,135.1L27.5,135.1c1.7,0,3,1.3,3,3v4c0,1.7-1.3,3-3,3l0,0c-1.7,0-3-1.3-3-3v-4    C24.5,136.4,25.8,135.1,27.5,135.1z"/>
		<path id="Rectangle_179" class="st9" d="M77.5,135.1L77.5,135.1c1.7,0,3,1.3,3,3v4c0,1.7-1.3,3-3,3l0,0c-1.7,0-3-1.3-3-3v-4    C74.5,136.4,75.8,135.1,77.5,135.1z"/>
		<path id="Rectangle_177" class="st3" d="M26.5,134.1L26.5,134.1c1.7,0,3,1.3,3,3v4c0,1.7-1.3,3-3,3l0,0c-1.7,0-3-1.3-3-3v-4    C23.5,135.4,24.8,134.1,26.5,134.1z"/>
		<path id="Rectangle_178" class="st3" d="M78.5,134.1L78.5,134.1c1.7,0,3,1.3,3,3v4c0,1.7-1.3,3-3,3l0,0c-1.7,0-3-1.3-3-3v-4    C75.5,135.4,76.8,134.1,78.5,134.1z"/>
		<g class="st0">
			<path class="st10" d="M52.4,145.4c0.1,0.1,0.3,0.2,0.5,0.3v-1.3c0,0,0,0-0.1,0c0,0-0.1,0-0.1,0c-0.1,0-0.3-0.1-0.4-0.1     s-0.3-0.1-0.4-0.2c-0.1-0.1-0.2-0.2-0.3-0.3c-0.1-0.1-0.1-0.3-0.1-0.5c0-0.2,0-0.4,0.1-0.5c0.1-0.2,0.2-0.3,0.3-0.4     c0.1-0.1,0.3-0.2,0.4-0.2c0.2-0.1,0.3-0.1,0.5-0.1v-0.5h0.4v0.5c0.2,0,0.3,0.1,0.5,0.1c0.2,0.1,0.3,0.1,0.4,0.2     c0.1,0.1,0.2,0.2,0.3,0.4c0.1,0.2,0.1,0.3,0.1,0.5h-0.9c0-0.2-0.1-0.3-0.1-0.4c-0.1-0.1-0.2-0.2-0.3-0.2v1.1c0,0,0.1,0,0.1,0     c0.1,0,0.1,0,0.2,0c0.3,0.1,0.5,0.2,0.7,0.3c0.2,0.1,0.3,0.2,0.4,0.4c0.1,0.1,0.1,0.3,0.1,0.4c0,0.1,0,0.2,0,0.3     c0,0.1,0,0.2-0.1,0.3c0,0.1-0.1,0.3-0.2,0.4c-0.1,0.1-0.3,0.2-0.5,0.3s-0.4,0.2-0.7,0.2v0.5h-0.4v-0.5c-0.4,0-0.8-0.2-1-0.4     c-0.3-0.2-0.4-0.6-0.4-1.1h0.8C52.2,145.1,52.2,145.3,52.4,145.4z M52.6,142.6c-0.1,0-0.1,0.1-0.2,0.1c-0.1,0-0.1,0.1-0.1,0.2     c0,0.1,0,0.1,0,0.2c0,0.1,0,0.2,0.1,0.3s0.2,0.1,0.4,0.2v-1C52.8,142.6,52.7,142.6,52.6,142.6z M53.4,145.6     c0.1,0,0.1-0.1,0.2-0.1s0.1-0.1,0.2-0.2c0-0.1,0.1-0.2,0.1-0.2c0-0.2,0-0.3-0.1-0.4c-0.1-0.1-0.3-0.1-0.5-0.2v1.2     C53.2,145.6,53.3,145.6,53.4,145.6z"/>
		</g>
	</g>
</g>
</svg>